<mxfile host="app.diagrams.net" agent="Mozilla/5.0 (Windows NT 10.0; Win64; x64) AppleWebKit/537.36 (KHTML, like Gecko) Chrome/128.0.0.0 Safari/537.36 Edg/128.0.0.0" version="24.7.17">
  <diagram name="第 1 页" id="QgNK3eTXXUzqxRTv0S-a">
    <mxGraphModel dx="1148" dy="668" grid="1" gridSize="10" guides="1" tooltips="1" connect="1" arrows="1" fold="1" page="1" pageScale="1" pageWidth="827" pageHeight="1169" math="0" shadow="0">
      <root>
        <mxCell id="0" />
        <mxCell id="1" parent="0" />
        <mxCell id="0Bb9e7Ep8R2SE3kqVJWD-13" value="" style="rounded=0;whiteSpace=wrap;html=1;" vertex="1" parent="1">
          <mxGeometry x="880" y="710" width="696" height="620" as="geometry" />
        </mxCell>
        <mxCell id="0Bb9e7Ep8R2SE3kqVJWD-4" value="" style="rounded=0;whiteSpace=wrap;html=1;" vertex="1" parent="1">
          <mxGeometry x="920" y="160" width="510" height="150" as="geometry" />
        </mxCell>
        <mxCell id="0Bb9e7Ep8R2SE3kqVJWD-1" value="&lt;font style=&quot;font-size: 18px;&quot;&gt;SCADA应用&lt;/font&gt;" style="rounded=1;whiteSpace=wrap;html=1;" vertex="1" parent="1">
          <mxGeometry x="320" y="220" width="260" height="40" as="geometry" />
        </mxCell>
        <mxCell id="0Bb9e7Ep8R2SE3kqVJWD-2" value="&lt;font style=&quot;font-size: 18px;&quot;&gt;前置采集&lt;/font&gt;" style="rounded=1;whiteSpace=wrap;html=1;" vertex="1" parent="1">
          <mxGeometry x="320" y="130" width="260" height="40" as="geometry" />
        </mxCell>
        <mxCell id="0Bb9e7Ep8R2SE3kqVJWD-3" value="&lt;font style=&quot;font-size: 18px;&quot;&gt;安全隔离设备&lt;/font&gt;" style="rounded=1;whiteSpace=wrap;html=1;" vertex="1" parent="1">
          <mxGeometry x="320" y="300" width="260" height="40" as="geometry" />
        </mxCell>
        <mxCell id="0Bb9e7Ep8R2SE3kqVJWD-5" value="&lt;font style=&quot;font-size: 18px;&quot;&gt;PLC控制柜&lt;/font&gt;" style="rounded=0;whiteSpace=wrap;html=1;" vertex="1" parent="1">
          <mxGeometry x="350" y="440" width="200" height="40" as="geometry" />
        </mxCell>
        <mxCell id="0Bb9e7Ep8R2SE3kqVJWD-7" value="&lt;font style=&quot;font-size: 18px;&quot;&gt;交换机&lt;/font&gt;" style="rounded=1;whiteSpace=wrap;html=1;" vertex="1" parent="1">
          <mxGeometry x="320" y="500" width="260" height="40" as="geometry" />
        </mxCell>
        <mxCell id="0Bb9e7Ep8R2SE3kqVJWD-8" value="&lt;span style=&quot;font-size: 18px;&quot;&gt;PLC/RTU&lt;/span&gt;" style="rounded=1;whiteSpace=wrap;html=1;" vertex="1" parent="1">
          <mxGeometry x="320" y="560" width="260" height="40" as="geometry" />
        </mxCell>
        <mxCell id="0Bb9e7Ep8R2SE3kqVJWD-9" value="&lt;span style=&quot;font-size: 18px;&quot;&gt;电源&lt;/span&gt;" style="rounded=1;whiteSpace=wrap;html=1;" vertex="1" parent="1">
          <mxGeometry x="320" y="620" width="260" height="40" as="geometry" />
        </mxCell>
        <mxCell id="0Bb9e7Ep8R2SE3kqVJWD-10" value="&lt;span style=&quot;font-size: 18px;&quot;&gt;防浪涌保护器&lt;/span&gt;" style="rounded=1;whiteSpace=wrap;html=1;" vertex="1" parent="1">
          <mxGeometry x="320" y="680" width="120" height="40" as="geometry" />
        </mxCell>
        <mxCell id="0Bb9e7Ep8R2SE3kqVJWD-11" value="&lt;span style=&quot;font-size: 18px;&quot;&gt;继电器&lt;/span&gt;" style="rounded=1;whiteSpace=wrap;html=1;" vertex="1" parent="1">
          <mxGeometry x="460" y="680" width="120" height="40" as="geometry" />
        </mxCell>
        <mxCell id="0Bb9e7Ep8R2SE3kqVJWD-12" value="&lt;span style=&quot;font-size: 18px;&quot;&gt;接线端子&lt;/span&gt;" style="rounded=1;whiteSpace=wrap;html=1;" vertex="1" parent="1">
          <mxGeometry x="320" y="740" width="260" height="40" as="geometry" />
        </mxCell>
        <mxCell id="0Bb9e7Ep8R2SE3kqVJWD-14" value="&lt;span style=&quot;font-size: 18px;&quot;&gt;上位机&lt;/span&gt;" style="rounded=1;whiteSpace=wrap;html=1;" vertex="1" parent="1">
          <mxGeometry x="680" y="550" width="120" height="60" as="geometry" />
        </mxCell>
        <mxCell id="0Bb9e7Ep8R2SE3kqVJWD-20" value="" style="shape=flexArrow;endArrow=classic;startArrow=classic;html=1;rounded=0;entryX=0.5;entryY=1;entryDx=0;entryDy=0;" edge="1" parent="1" target="0Bb9e7Ep8R2SE3kqVJWD-2">
          <mxGeometry width="100" height="100" relative="1" as="geometry">
            <mxPoint x="450" y="220" as="sourcePoint" />
            <mxPoint x="450" y="180" as="targetPoint" />
          </mxGeometry>
        </mxCell>
        <mxCell id="0Bb9e7Ep8R2SE3kqVJWD-21" value="" style="shape=curlyBracket;whiteSpace=wrap;html=1;rounded=1;flipH=1;labelPosition=right;verticalLabelPosition=middle;align=left;verticalAlign=middle;rotation=-90;" vertex="1" parent="1">
          <mxGeometry x="435.5" y="710" width="29" height="290.5" as="geometry" />
        </mxCell>
      </root>
    </mxGraphModel>
  </diagram>
</mxfile>
